<?xml version="1.0" standalone="no"?>
<!DOCTYPE svg PUBLIC "-//W3C//DTD SVG 20010904//EN"
 "http://www.w3.org/TR/2001/REC-SVG-20010904/DTD/svg10.dtd">
<svg version="1.0" xmlns="http://www.w3.org/2000/svg"
 width="269.000000pt" height="269.000000pt" viewBox="0 0 269.000000 269.000000"
 preserveAspectRatio="xMidYMid meet">
<metadata>
Created by potrace 1.16, written by Peter Selinger 2001-2019
</metadata>
<g transform="translate(0.000000,269.000000) scale(0.100000,-0.100000)"
fill="#000000" stroke="none">
<path d="M1106 2674 c-179 -32 -392 -122 -541 -229 -102 -72 -240 -208 -310
-305 -330 -460 -340 -1068 -24 -1540 302 -451 838 -673 1380 -570 538 102 969
541 1064 1084 20 116 20 346 0 462 -72 411 -348 785 -719 971 -111 56 -265
108 -380 128 -111 19 -361 19 -470 -1z m64 -1020 c0 -121 -11 -147 -31 -69
-16 63 -62 123 -112 146 -85 38 -205 16 -251 -48 -31 -42 -32 -111 -4 -153 25
-37 73 -57 258 -111 123 -35 180 -108 180 -231 0 -111 -79 -229 -177 -262 -91
-31 -198 -15 -271 41 -31 23 -36 24 -44 9 -5 -9 -20 -28 -33 -44 l-24 -27 -1
135 c0 73 4 130 8 125 5 -6 16 -31 26 -56 23 -63 76 -122 138 -153 172 -86
358 59 297 232 -15 43 -55 66 -210 117 -72 25 -147 56 -165 70 -128 97 -89
314 68 379 57 24 178 21 240 -6 l51 -22 19 27 c11 15 24 25 29 21 5 -3 9 -57
9 -120z m320 -106 l0 -212 38 36 c20 20 50 42 65 47 41 16 124 13 161 -4 57
-27 61 -40 64 -262 l4 -203 39 0 c21 0 39 -4 39 -10 0 -6 -53 -10 -140 -10
-87 0 -140 4 -140 10 0 6 20 10 45 10 l45 0 0 199 c0 185 -1 200 -21 225 -39
49 -124 24 -176 -53 -22 -32 -23 -44 -23 -202 l0 -169 45 0 c25 0 45 -4 45
-10 0 -6 -53 -10 -140 -10 -87 0 -140 4 -140 10 0 6 18 10 40 10 l40 0 0 395
0 395 -40 0 c-22 0 -40 5 -40 10 0 6 38 10 95 10 l95 0 0 -212z"/>
</g>
</svg>
